<?xml version="1.0" encoding="UTF-8"?>
<svg version="1.1" xmlns="http://www.w3.org/2000/svg" width="64" height="64">
<path d="M0 0 C7.3940625 -0.2784375 7.3940625 -0.2784375 14.9375 -0.5625 C17.2422229 -0.68540405 17.2422229 -0.68540405 19.59350586 -0.81079102 C25.88258456 -0.9251379 31.26201758 -0.81437756 36.46875 3.15625 C42.7693448 10.75788353 40.9205278 21.80256513 40.5625 31.0625 C40.51730556 33.09301025 40.47624969 35.12361708 40.43945312 37.15429688 C40.3484442 42.10720475 40.1724215 47.04660702 40 52 C26.8 52 13.6 52 0 52 C0 34.84 0 17.68 0 0 Z M2 3 C1.8988308 6.09081465 1.86031442 9.15882555 1.8671875 12.25 C1.86623077 13.17844727 1.86527405 14.10689453 1.86428833 15.06347656 C1.86360645 17.03059965 1.86546128 18.99772496 1.86962891 20.96484375 C1.87497705 23.98703026 1.86968418 27.00906815 1.86328125 30.03125 C1.86394203 31.93750033 1.86522319 33.84375057 1.8671875 35.75 C1.86516327 36.66040039 1.86313904 37.57080078 1.86105347 38.50878906 C1.46108668 42.57663678 1.46108668 42.57663678 3 46 C5.50924153 46.10087212 7.99036384 46.13972032 10.5 46.1328125 C11.62631836 46.13424759 11.62631836 46.13424759 12.77539062 46.13571167 C14.36588627 46.13639338 15.95638467 46.13453972 17.546875 46.13037109 C19.98964655 46.12502267 22.43223421 46.13031634 24.875 46.13671875 C26.41666707 46.13605797 27.95833403 46.1347768 29.5 46.1328125 C30.23541016 46.13483673 30.97082031 46.13686096 31.72851562 46.13894653 C35.15246342 46.43056513 35.15246342 46.43056513 38 45 C38.08843793 42.55169574 38.11528752 40.13179401 38.09765625 37.68359375 C38.0962413 36.95253922 38.09482635 36.22148468 38.09336853 35.46827698 C38.08775408 33.12464368 38.07519922 30.78110461 38.0625 28.4375 C38.05748686 26.85221492 38.05292363 25.26692834 38.04882812 23.68164062 C38.03777997 19.7877239 38.02050572 15.89387795 38 12 C34.7 12 31.4 12 28 12 C28 8.7 28 5.4 28 2 C23.85418113 1.97113249 19.70838784 1.95324673 15.5625 1.9375 C14.37849609 1.92912109 13.19449219 1.92074219 11.97460938 1.91210938 C10.84990234 1.90888672 9.72519531 1.90566406 8.56640625 1.90234375 C7.52427979 1.89710693 6.48215332 1.89187012 5.40844727 1.88647461 C3.04871253 1.72694444 3.04871253 1.72694444 2 3 Z M30 5 C30.33 6.65 30.66 8.3 31 10 C32.32 9.67 33.64 9.34 35 9 C33.35 7.68 31.7 6.36 30 5 Z M2 48 C2.33 48.66 2.66 49.32 3 50 C14.22 50 25.44 50 37 50 C37.33 49.34 37.66 48.68 38 48 C26.12 48 14.24 48 2 48 Z " fill="#7545FF" transform="translate(12,6)"/>
<path d="M0 0 C1.65 0 3.3 0 5 0 C4.9175 1.03125 4.835 2.0625 4.75 3.125 C5.04664442 7.72298851 6.00876341 9.53646289 9 13 C12.10014929 14.88568694 12.10014929 14.88568694 15 16 C15 17.32 15 18.64 15 20 C9.125 19.125 9.125 19.125 8 18 C4.9115234 17.91229478 1.98646195 18.20606381 -1 19 C-3.31607874 21.45633073 -3.31607874 21.45633073 -5 24 C-6.32 24 -7.64 24 -9 24 C-9.3125 21.6875 -9.3125 21.6875 -9 19 C-8.2575 18.608125 -7.515 18.21625 -6.75 17.8125 C-2.46742505 14.98989378 -1.36634081 10.81579138 0 6 C0.34078192 2.58019714 0.34078192 2.58019714 0 0 Z M2 11 C1.67 12.32 1.34 13.64 1 15 C2.32 14.34 3.64 13.68 5 13 C4.01 12.34 3.02 11.68 2 11 Z " fill="#C2B3FF" transform="translate(29,20)"/>
<path d="M0 0 C1.65 0 3.3 0 5 0 C4.979375 1.0725 4.95875 2.145 4.9375 3.25 C4.85984566 7.08066558 4.85984566 7.08066558 6 11 C3.36 11.99 0.72 12.98 -2 14 C-1.505 12.205625 -1.505 12.205625 -1 10.375 C-0.10734177 6.84208503 0.18296045 3.65920891 0 0 Z " fill="#7CC3FF" transform="translate(29,20)"/>
<path d="M0 0 C1.65 0 3.3 0 5 0 C5.33 1.32 5.66 2.64 6 4 C3.36 4.99 0.72 5.98 -2 7 C-1.34 4.69 -0.68 2.38 0 0 Z " fill="#9DB9FF" transform="translate(29,27)"/>
<path d="M0 0 C2.31 0 4.62 0 7 0 C6.3125 1.9375 6.3125 1.9375 5 4 C2.375 4.75 2.375 4.75 0 5 C0 3.35 0 1.7 0 0 Z " fill="#D8ADFF" transform="translate(20,39)"/>
<path d="M0 0 C2.375 0.3125 2.375 0.3125 5 1 C5.66 1.99 6.32 2.98 7 4 C5.35 4 3.7 4 2 4 C1.34 2.68 0.68 1.36 0 0 Z " fill="#B0B7FF" transform="translate(32,31)"/>
</svg>
